<?xml version="1.0" encoding="UTF-8" standalone="no"?>
<!DOCTYPE svg PUBLIC "-//W3C//DTD SVG 1.1//EN"
 "http://www.w3.org/Graphics/SVG/1.1/DTD/svg11.dtd">
<!-- Generated by graphviz version 2.48.0 (20210717.1556)
 -->
<!-- Title: JackdawWeaver_join_point_hierarchy_join_point_hierarchy Pages: 1 -->
<svg width="339pt" height="896pt"
 viewBox="0.00 0.00 339.00 896.00" xmlns="http://www.w3.org/2000/svg" xmlns:xlink="http://www.w3.org/1999/xlink">
<g id="graph0" class="graph" transform="scale(1 1) rotate(0) translate(4 892)">
<title>JackdawWeaver_join_point_hierarchy_join_point_hierarchy</title>
<polygon fill="white" stroke="transparent" points="-4,4 -4,-892 335,-892 335,4 -4,4"/>
<!-- assignmentExpression -->
<g id="node1" class="node">
<title>assignmentExpression</title>
<polygon fill="#b2dfee" stroke="#b2dfee" points="331,-851 225,-851 225,-832 331,-832 331,-851"/>
<text text-anchor="middle" x="278" y="-839" font-family="Times New Roman,serif" font-size="10.00">assignmentExpression</text>
</g>
<!-- expression -->
<g id="node2" class="node">
<title>expression</title>
<polygon fill="#b2dfee" stroke="#b2dfee" points="169,-759 110,-759 110,-740 169,-740 169,-759"/>
<text text-anchor="middle" x="139.5" y="-747" font-family="Times New Roman,serif" font-size="10.00">expression</text>
</g>
<!-- assignmentExpression&#45;&gt;expression -->
<g id="edge1" class="edge">
<title>assignmentExpression&#45;&gt;expression</title>
<path fill="none" stroke="black" d="M243.15,-831.91C236.92,-829.56 230.62,-826.76 225,-823.5 198.34,-808.01 172.37,-783.42 156.42,-766.89"/>
<polygon fill="black" stroke="black" points="158.84,-764.36 149.43,-759.49 153.75,-769.16 158.84,-764.36"/>
</g>
<!-- joinpoint -->
<g id="node7" class="node">
<title>joinpoint</title>
<polygon fill="#b2dfee" stroke="#b2dfee" points="54,-407 0,-407 0,-388 54,-388 54,-407"/>
<text text-anchor="middle" x="27" y="-395" font-family="Times New Roman,serif" font-size="10.00">joinpoint</text>
</g>
<!-- expression&#45;&gt;joinpoint -->
<g id="edge13" class="edge">
<title>expression&#45;&gt;joinpoint</title>
<path fill="none" stroke="black" d="M109.83,-744.23C102.41,-741.56 95.09,-737.55 90,-731.5 49.34,-683.18 33.32,-481.94 29.17,-417.47"/>
<polygon fill="black" stroke="black" points="32.64,-416.85 28.53,-407.09 25.65,-417.28 32.64,-416.85"/>
</g>
<!-- binaryExpression -->
<g id="node3" class="node">
<title>binaryExpression</title>
<polygon fill="#b2dfee" stroke="#b2dfee" points="321,-814 235,-814 235,-795 321,-795 321,-814"/>
<text text-anchor="middle" x="278" y="-802" font-family="Times New Roman,serif" font-size="10.00">binaryExpression</text>
</g>
<!-- binaryExpression&#45;&gt;expression -->
<g id="edge2" class="edge">
<title>binaryExpression&#45;&gt;expression</title>
<path fill="none" stroke="black" d="M247.97,-794.91C240.45,-792.3 232.38,-789.39 225,-786.5 206.72,-779.35 186.58,-770.56 170.54,-763.35"/>
<polygon fill="black" stroke="black" points="171.7,-760.03 161.14,-759.09 168.81,-766.4 171.7,-760.03"/>
</g>
<!-- blockStatement -->
<g id="node4" class="node">
<title>blockStatement</title>
<polygon fill="#b2dfee" stroke="#b2dfee" points="317,-888 239,-888 239,-869 317,-869 317,-888"/>
<text text-anchor="middle" x="278" y="-876" font-family="Times New Roman,serif" font-size="10.00">blockStatement</text>
</g>
<!-- statement -->
<g id="node5" class="node">
<title>statement</title>
<polygon fill="#b2dfee" stroke="#b2dfee" points="167.5,-842 111.5,-842 111.5,-823 167.5,-823 167.5,-842"/>
<text text-anchor="middle" x="139.5" y="-830" font-family="Times New Roman,serif" font-size="10.00">statement</text>
</g>
<!-- blockStatement&#45;&gt;statement -->
<g id="edge3" class="edge">
<title>blockStatement&#45;&gt;statement</title>
<path fill="none" stroke="black" d="M248.72,-868.97C228.04,-862 199.8,-852.48 177.36,-844.92"/>
<polygon fill="black" stroke="black" points="178.41,-841.58 167.82,-841.71 176.17,-848.22 178.41,-841.58"/>
</g>
<!-- statement&#45;&gt;joinpoint -->
<g id="edge27" class="edge">
<title>statement&#45;&gt;joinpoint</title>
<path fill="none" stroke="black" d="M128.53,-822.64C117.26,-810.85 99.27,-790.01 90,-768.5 35.82,-642.83 28.8,-474.3 28.03,-417.29"/>
<polygon fill="black" stroke="black" points="31.53,-417.12 27.95,-407.14 24.53,-417.17 31.53,-417.12"/>
</g>
<!-- breakStatement -->
<g id="node6" class="node">
<title>breakStatement</title>
<polygon fill="#b2dfee" stroke="#b2dfee" points="178.5,-722 100.5,-722 100.5,-703 178.5,-703 178.5,-722"/>
<text text-anchor="middle" x="139.5" y="-710" font-family="Times New Roman,serif" font-size="10.00">breakStatement</text>
</g>
<!-- breakStatement&#45;&gt;joinpoint -->
<g id="edge4" class="edge">
<title>breakStatement&#45;&gt;joinpoint</title>
<path fill="none" stroke="black" d="M100.52,-702.9C96.56,-700.66 92.93,-697.9 90,-694.5 53.68,-652.3 35.07,-477.26 29.68,-417.55"/>
<polygon fill="black" stroke="black" points="33.14,-416.88 28.78,-407.23 26.16,-417.49 33.14,-416.88"/>
</g>
<!-- callExpression -->
<g id="node8" class="node">
<title>callExpression</title>
<polygon fill="#b2dfee" stroke="#b2dfee" points="315,-777 241,-777 241,-758 315,-758 315,-777"/>
<text text-anchor="middle" x="278" y="-765" font-family="Times New Roman,serif" font-size="10.00">callExpression</text>
</g>
<!-- callExpression&#45;&gt;expression -->
<g id="edge5" class="edge">
<title>callExpression&#45;&gt;expression</title>
<path fill="none" stroke="black" d="M240.78,-762.72C221.77,-760.22 198.46,-757.14 179.11,-754.59"/>
<polygon fill="black" stroke="black" points="179.47,-751.11 169.1,-753.27 178.56,-758.05 179.47,-751.11"/>
</g>
<!-- catchClause -->
<g id="node9" class="node">
<title>catchClause</title>
<polygon fill="#b2dfee" stroke="#b2dfee" points="172,-685 107,-685 107,-666 172,-666 172,-685"/>
<text text-anchor="middle" x="139.5" y="-673" font-family="Times New Roman,serif" font-size="10.00">catchClause</text>
</g>
<!-- catchClause&#45;&gt;joinpoint -->
<g id="edge6" class="edge">
<title>catchClause&#45;&gt;joinpoint</title>
<path fill="none" stroke="black" d="M107,-668.9C100.64,-666.27 94.53,-662.61 90,-657.5 57.9,-621.25 36.94,-471.37 30.28,-417.17"/>
<polygon fill="black" stroke="black" points="33.75,-416.64 29.08,-407.13 26.8,-417.48 33.75,-416.64"/>
</g>
<!-- classBody -->
<g id="node10" class="node">
<title>classBody</title>
<polygon fill="#b2dfee" stroke="#b2dfee" points="169,-648 110,-648 110,-629 169,-629 169,-648"/>
<text text-anchor="middle" x="139.5" y="-636" font-family="Times New Roman,serif" font-size="10.00">classBody</text>
</g>
<!-- classBody&#45;&gt;joinpoint -->
<g id="edge7" class="edge">
<title>classBody&#45;&gt;joinpoint</title>
<path fill="none" stroke="black" d="M109.91,-632.84C102.58,-630.17 95.29,-626.25 90,-620.5 36.2,-561.96 28.52,-460.7 27.82,-417.72"/>
<polygon fill="black" stroke="black" points="31.31,-417.43 27.77,-407.45 24.31,-417.47 31.31,-417.43"/>
</g>
<!-- classDeclaration -->
<g id="node11" class="node">
<title>classDeclaration</title>
<polygon fill="#b2dfee" stroke="#b2dfee" points="181,-611 98,-611 98,-592 181,-592 181,-611"/>
<text text-anchor="middle" x="139.5" y="-599" font-family="Times New Roman,serif" font-size="10.00">classDeclaration</text>
</g>
<!-- classDeclaration&#45;&gt;joinpoint -->
<g id="edge8" class="edge">
<title>classDeclaration&#45;&gt;joinpoint</title>
<path fill="none" stroke="black" d="M101.37,-591.82C97.18,-589.59 93.25,-586.86 90,-583.5 44.33,-536.27 32.28,-454.51 29.12,-417.15"/>
<polygon fill="black" stroke="black" points="32.6,-416.79 28.39,-407.07 25.62,-417.29 32.6,-416.79"/>
</g>
<!-- continueStatement -->
<g id="node12" class="node">
<title>continueStatement</title>
<polygon fill="#b2dfee" stroke="#b2dfee" points="185.5,-574 93.5,-574 93.5,-555 185.5,-555 185.5,-574"/>
<text text-anchor="middle" x="139.5" y="-562" font-family="Times New Roman,serif" font-size="10.00">continueStatement</text>
</g>
<!-- continueStatement&#45;&gt;joinpoint -->
<g id="edge9" class="edge">
<title>continueStatement&#45;&gt;joinpoint</title>
<path fill="none" stroke="black" d="M102.09,-554.84C97.67,-552.61 93.5,-549.86 90,-546.5 52.77,-510.69 37.01,-449.18 31.1,-417.56"/>
<polygon fill="black" stroke="black" points="34.49,-416.63 29.35,-407.37 27.59,-417.82 34.49,-416.63"/>
</g>
<!-- declaration -->
<g id="node13" class="node">
<title>declaration</title>
<polygon fill="#b2dfee" stroke="#b2dfee" points="170,-537 109,-537 109,-518 170,-518 170,-537"/>
<text text-anchor="middle" x="139.5" y="-525" font-family="Times New Roman,serif" font-size="10.00">declaration</text>
</g>
<!-- declaration&#45;&gt;joinpoint -->
<g id="edge10" class="edge">
<title>declaration&#45;&gt;joinpoint</title>
<path fill="none" stroke="black" d="M108.97,-520.32C102.23,-517.7 95.45,-514.19 90,-509.5 60.64,-484.25 42.53,-441.5 33.95,-416.76"/>
<polygon fill="black" stroke="black" points="37.22,-415.48 30.76,-407.07 30.57,-417.67 37.22,-415.48"/>
</g>
<!-- declarator -->
<g id="node14" class="node">
<title>declarator</title>
<polygon fill="#b2dfee" stroke="#b2dfee" points="167.5,-500 111.5,-500 111.5,-481 167.5,-481 167.5,-500"/>
<text text-anchor="middle" x="139.5" y="-488" font-family="Times New Roman,serif" font-size="10.00">declarator</text>
</g>
<!-- declarator&#45;&gt;joinpoint -->
<g id="edge11" class="edge">
<title>declarator&#45;&gt;joinpoint</title>
<path fill="none" stroke="black" d="M111.33,-483.24C104.01,-480.55 96.37,-477.03 90,-472.5 68.59,-457.29 50.31,-432.89 39.27,-416.07"/>
<polygon fill="black" stroke="black" points="41.94,-413.75 33.63,-407.17 36.02,-417.49 41.94,-413.75"/>
</g>
<!-- doWhileStatement -->
<g id="node15" class="node">
<title>doWhileStatement</title>
<polygon fill="#b2dfee" stroke="#b2dfee" points="323.5,-500 232.5,-500 232.5,-481 323.5,-481 323.5,-500"/>
<text text-anchor="middle" x="278" y="-488" font-family="Times New Roman,serif" font-size="10.00">doWhileStatement</text>
</g>
<!-- loop -->
<g id="node16" class="node">
<title>loop</title>
<polygon fill="#b2dfee" stroke="#b2dfee" points="166.5,-463 112.5,-463 112.5,-444 166.5,-444 166.5,-463"/>
<text text-anchor="middle" x="139.5" y="-451" font-family="Times New Roman,serif" font-size="10.00">loop</text>
</g>
<!-- doWhileStatement&#45;&gt;loop -->
<g id="edge12" class="edge">
<title>doWhileStatement&#45;&gt;loop</title>
<path fill="none" stroke="black" d="M241.85,-480.97C221.85,-475.55 196.84,-468.77 176.67,-463.3"/>
<polygon fill="black" stroke="black" points="177.48,-459.9 166.91,-460.66 175.65,-466.65 177.48,-459.9"/>
</g>
<!-- loop&#45;&gt;joinpoint -->
<g id="edge22" class="edge">
<title>loop&#45;&gt;joinpoint</title>
<path fill="none" stroke="black" d="M112.44,-444.88C105.06,-442.16 97.11,-438.96 90,-435.5 76.38,-428.88 61.92,-420.12 50.39,-412.68"/>
<polygon fill="black" stroke="black" points="52.12,-409.63 41.84,-407.06 48.27,-415.48 52.12,-409.63"/>
</g>
<!-- expressionStatement -->
<g id="node17" class="node">
<title>expressionStatement</title>
<polygon fill="#b2dfee" stroke="#b2dfee" points="189,-426 90,-426 90,-407 189,-407 189,-426"/>
<text text-anchor="middle" x="139.5" y="-414" font-family="Times New Roman,serif" font-size="10.00">expressionStatement</text>
</g>
<!-- expressionStatement&#45;&gt;joinpoint -->
<g id="edge14" class="edge">
<title>expressionStatement&#45;&gt;joinpoint</title>
<path fill="none" stroke="black" d="M89.71,-408.11C81.09,-406.63 72.26,-405.11 64.07,-403.7"/>
<polygon fill="black" stroke="black" points="64.56,-400.23 54.11,-401.99 63.37,-407.13 64.56,-400.23"/>
</g>
<!-- file -->
<g id="node18" class="node">
<title>file</title>
<polygon fill="#b2dfee" stroke="#b2dfee" points="166.5,-389 112.5,-389 112.5,-370 166.5,-370 166.5,-389"/>
<text text-anchor="middle" x="139.5" y="-377" font-family="Times New Roman,serif" font-size="10.00">file</text>
</g>
<!-- file&#45;&gt;joinpoint -->
<g id="edge15" class="edge">
<title>file&#45;&gt;joinpoint</title>
<path fill="none" stroke="black" d="M112.31,-383.77C97.97,-386.1 79.97,-389.03 64.29,-391.59"/>
<polygon fill="black" stroke="black" points="63.69,-388.14 54.38,-393.2 64.81,-395.05 63.69,-388.14"/>
</g>
<!-- forStatement -->
<g id="node19" class="node">
<title>forStatement</title>
<polygon fill="#b2dfee" stroke="#b2dfee" points="312,-463 244,-463 244,-444 312,-444 312,-463"/>
<text text-anchor="middle" x="278" y="-451" font-family="Times New Roman,serif" font-size="10.00">forStatement</text>
</g>
<!-- forStatement&#45;&gt;loop -->
<g id="edge16" class="edge">
<title>forStatement&#45;&gt;loop</title>
<path fill="none" stroke="black" d="M243.96,-453.5C223.71,-453.5 197.76,-453.5 176.92,-453.5"/>
<polygon fill="black" stroke="black" points="176.85,-450 166.85,-453.5 176.85,-457 176.85,-450"/>
</g>
<!-- functionDeclaration -->
<g id="node20" class="node">
<title>functionDeclaration</title>
<polygon fill="#b2dfee" stroke="#b2dfee" points="187.5,-352 91.5,-352 91.5,-333 187.5,-333 187.5,-352"/>
<text text-anchor="middle" x="139.5" y="-340" font-family="Times New Roman,serif" font-size="10.00">functionDeclaration</text>
</g>
<!-- functionDeclaration&#45;&gt;joinpoint -->
<g id="edge17" class="edge">
<title>functionDeclaration&#45;&gt;joinpoint</title>
<path fill="none" stroke="black" d="M112.01,-352.04C104.78,-354.87 97,-358.12 90,-361.5 77.04,-367.76 63.14,-375.71 51.79,-382.54"/>
<polygon fill="black" stroke="black" points="49.64,-379.75 42.94,-387.96 53.29,-385.73 49.64,-379.75"/>
</g>
<!-- functionExpression -->
<g id="node21" class="node">
<title>functionExpression</title>
<polygon fill="#b2dfee" stroke="#b2dfee" points="325,-740 231,-740 231,-721 325,-721 325,-740"/>
<text text-anchor="middle" x="278" y="-728" font-family="Times New Roman,serif" font-size="10.00">functionExpression</text>
</g>
<!-- functionExpression&#45;&gt;expression -->
<g id="edge18" class="edge">
<title>functionExpression&#45;&gt;expression</title>
<path fill="none" stroke="black" d="M230.79,-736.93C214.04,-739.26 195.3,-741.87 179.26,-744.1"/>
<polygon fill="black" stroke="black" points="178.58,-740.67 169.16,-745.51 179.54,-747.6 178.58,-740.67"/>
</g>
<!-- identifier -->
<g id="node22" class="node">
<title>identifier</title>
<polygon fill="#b2dfee" stroke="#b2dfee" points="166.5,-315 112.5,-315 112.5,-296 166.5,-296 166.5,-315"/>
<text text-anchor="middle" x="139.5" y="-303" font-family="Times New Roman,serif" font-size="10.00">identifier</text>
</g>
<!-- identifier&#45;&gt;joinpoint -->
<g id="edge19" class="edge">
<title>identifier&#45;&gt;joinpoint</title>
<path fill="none" stroke="black" d="M112.38,-313.05C104.76,-315.94 96.7,-319.72 90,-324.5 69.19,-339.36 51,-362.72 39.8,-378.99"/>
<polygon fill="black" stroke="black" points="36.67,-377.38 34.05,-387.64 42.5,-381.26 36.67,-377.38"/>
</g>
<!-- ifStatement -->
<g id="node23" class="node">
<title>ifStatement</title>
<polygon fill="#b2dfee" stroke="#b2dfee" points="170.5,-278 108.5,-278 108.5,-259 170.5,-259 170.5,-278"/>
<text text-anchor="middle" x="139.5" y="-266" font-family="Times New Roman,serif" font-size="10.00">ifStatement</text>
</g>
<!-- ifStatement&#45;&gt;joinpoint -->
<g id="edge20" class="edge">
<title>ifStatement&#45;&gt;joinpoint</title>
<path fill="none" stroke="black" d="M108.49,-276.57C101.91,-279.3 95.32,-282.87 90,-287.5 61.32,-312.43 43.05,-354.03 34.25,-378.3"/>
<polygon fill="black" stroke="black" points="30.91,-377.23 30.96,-387.82 37.53,-379.52 30.91,-377.23"/>
</g>
<!-- literal -->
<g id="node24" class="node">
<title>literal</title>
<polygon fill="#b2dfee" stroke="#b2dfee" points="166.5,-241 112.5,-241 112.5,-222 166.5,-222 166.5,-241"/>
<text text-anchor="middle" x="139.5" y="-229" font-family="Times New Roman,serif" font-size="10.00">literal</text>
</g>
<!-- literal&#45;&gt;joinpoint -->
<g id="edge21" class="edge">
<title>literal&#45;&gt;joinpoint</title>
<path fill="none" stroke="black" d="M112.38,-237.48C104.42,-240.34 96.15,-244.5 90,-250.5 53.43,-286.14 37.38,-346.68 31.26,-377.78"/>
<polygon fill="black" stroke="black" points="27.78,-377.34 29.43,-387.8 34.67,-378.59 27.78,-377.34"/>
</g>
<!-- memberExpression -->
<g id="node25" class="node">
<title>memberExpression</title>
<polygon fill="#b2dfee" stroke="#b2dfee" points="323.5,-703 232.5,-703 232.5,-684 323.5,-684 323.5,-703"/>
<text text-anchor="middle" x="278" y="-691" font-family="Times New Roman,serif" font-size="10.00">memberExpression</text>
</g>
<!-- memberExpression&#45;&gt;expression -->
<g id="edge23" class="edge">
<title>memberExpression&#45;&gt;expression</title>
<path fill="none" stroke="black" d="M248.66,-703.07C240.9,-705.9 232.55,-709.14 225,-712.5 208.47,-719.84 205.52,-724.11 189,-731.5 185.37,-733.12 181.54,-734.73 177.69,-736.26"/>
<polygon fill="black" stroke="black" points="176.26,-733.06 168.2,-739.93 178.79,-739.59 176.26,-733.06"/>
</g>
<!-- methodDefinition -->
<g id="node26" class="node">
<title>methodDefinition</title>
<polygon fill="#b2dfee" stroke="#b2dfee" points="182.5,-204 96.5,-204 96.5,-185 182.5,-185 182.5,-204"/>
<text text-anchor="middle" x="139.5" y="-192" font-family="Times New Roman,serif" font-size="10.00">methodDefinition</text>
</g>
<!-- methodDefinition&#45;&gt;joinpoint -->
<g id="edge24" class="edge">
<title>methodDefinition&#45;&gt;joinpoint</title>
<path fill="none" stroke="black" d="M102.83,-204.2C98.09,-206.65 93.62,-209.7 90,-213.5 45.33,-260.39 32.79,-340.53 29.31,-377.61"/>
<polygon fill="black" stroke="black" points="25.82,-377.4 28.5,-387.65 32.79,-377.96 25.82,-377.4"/>
</g>
<!-- project -->
<g id="node27" class="node">
<title>project</title>
<polygon fill="#b2dfee" stroke="#b2dfee" points="166.5,-167 112.5,-167 112.5,-148 166.5,-148 166.5,-167"/>
<text text-anchor="middle" x="139.5" y="-155" font-family="Times New Roman,serif" font-size="10.00">project</text>
</g>
<!-- project&#45;&gt;joinpoint -->
<g id="edge25" class="edge">
<title>project&#45;&gt;joinpoint</title>
<path fill="none" stroke="black" d="M112.42,-162.86C104.27,-165.69 95.89,-170 90,-176.5 37.1,-234.97 28.94,-335.07 27.96,-377.53"/>
<polygon fill="black" stroke="black" points="24.45,-377.63 27.84,-387.67 31.45,-377.72 24.45,-377.63"/>
</g>
<!-- scope -->
<g id="node28" class="node">
<title>scope</title>
<polygon fill="#b2dfee" stroke="#b2dfee" points="166.5,-130 112.5,-130 112.5,-111 166.5,-111 166.5,-130"/>
<text text-anchor="middle" x="139.5" y="-118" font-family="Times New Roman,serif" font-size="10.00">scope</text>
</g>
<!-- scope&#45;&gt;joinpoint -->
<g id="edge26" class="edge">
<title>scope&#45;&gt;joinpoint</title>
<path fill="none" stroke="black" d="M112.28,-125.73C104.12,-128.56 95.76,-132.89 90,-139.5 58.43,-175.74 37.13,-324.3 30.34,-378.01"/>
<polygon fill="black" stroke="black" points="26.86,-377.6 29.11,-387.96 33.81,-378.46 26.86,-377.6"/>
</g>
<!-- switchCase -->
<g id="node29" class="node">
<title>switchCase</title>
<polygon fill="#b2dfee" stroke="#b2dfee" points="170.5,-93 108.5,-93 108.5,-74 170.5,-74 170.5,-93"/>
<text text-anchor="middle" x="139.5" y="-81" font-family="Times New Roman,serif" font-size="10.00">switchCase</text>
</g>
<!-- switchCase&#45;&gt;joinpoint -->
<g id="edge28" class="edge">
<title>switchCase&#45;&gt;joinpoint</title>
<path fill="none" stroke="black" d="M108.4,-89.41C101.51,-92.07 94.81,-95.92 90,-101.5 53.78,-143.55 35.1,-318.01 29.69,-377.51"/>
<polygon fill="black" stroke="black" points="26.18,-377.54 28.79,-387.81 33.15,-378.15 26.18,-377.54"/>
</g>
<!-- switchStatement -->
<g id="node30" class="node">
<title>switchStatement</title>
<polygon fill="#b2dfee" stroke="#b2dfee" points="181,-56 98,-56 98,-37 181,-37 181,-56"/>
<text text-anchor="middle" x="139.5" y="-44" font-family="Times New Roman,serif" font-size="10.00">switchStatement</text>
</g>
<!-- switchStatement&#45;&gt;joinpoint -->
<g id="edge29" class="edge">
<title>switchStatement&#45;&gt;joinpoint</title>
<path fill="none" stroke="black" d="M100.45,-56.03C96.5,-58.28 92.89,-61.06 90,-64.5 49.44,-112.67 33.35,-313.31 29.18,-377.59"/>
<polygon fill="black" stroke="black" points="25.66,-377.74 28.53,-387.94 32.65,-378.18 25.66,-377.74"/>
</g>
<!-- thisExpression -->
<g id="node31" class="node">
<title>thisExpression</title>
<polygon fill="#b2dfee" stroke="#b2dfee" points="315.5,-666 240.5,-666 240.5,-647 315.5,-647 315.5,-666"/>
<text text-anchor="middle" x="278" y="-654" font-family="Times New Roman,serif" font-size="10.00">thisExpression</text>
</g>
<!-- thisExpression&#45;&gt;expression -->
<g id="edge30" class="edge">
<title>thisExpression&#45;&gt;expression</title>
<path fill="none" stroke="black" d="M241.23,-666.05C235.45,-668.55 229.8,-671.66 225,-675.5 201.9,-693.99 212.05,-712.95 189,-731.5 185.82,-734.06 182.25,-736.27 178.52,-738.19"/>
<polygon fill="black" stroke="black" points="176.8,-735.12 169.05,-742.35 179.62,-741.53 176.8,-735.12"/>
</g>
<!-- tryStatement -->
<g id="node32" class="node">
<title>tryStatement</title>
<polygon fill="#b2dfee" stroke="#b2dfee" points="173.5,-19 105.5,-19 105.5,0 173.5,0 173.5,-19"/>
<text text-anchor="middle" x="139.5" y="-7" font-family="Times New Roman,serif" font-size="10.00">tryStatement</text>
</g>
<!-- tryStatement&#45;&gt;joinpoint -->
<g id="edge31" class="edge">
<title>tryStatement&#45;&gt;joinpoint</title>
<path fill="none" stroke="black" d="M105.24,-16.52C99.45,-19.11 94.01,-22.65 90,-27.5 45.09,-81.84 31.8,-308.85 28.77,-377.65"/>
<polygon fill="black" stroke="black" points="25.26,-377.8 28.34,-387.94 32.25,-378.09 25.26,-377.8"/>
</g>
<!-- updateExpression -->
<g id="node33" class="node">
<title>updateExpression</title>
<polygon fill="#b2dfee" stroke="#b2dfee" points="322,-629 234,-629 234,-610 322,-610 322,-629"/>
<text text-anchor="middle" x="278" y="-617" font-family="Times New Roman,serif" font-size="10.00">updateExpression</text>
</g>
<!-- updateExpression&#45;&gt;expression -->
<g id="edge32" class="edge">
<title>updateExpression&#45;&gt;expression</title>
<path fill="none" stroke="black" d="M238.94,-629.01C233.82,-631.49 228.98,-634.6 225,-638.5 193.36,-669.54 220.56,-700.38 189,-731.5 185.94,-734.52 182.34,-737.03 178.49,-739.13"/>
<polygon fill="black" stroke="black" points="176.91,-736.01 169.23,-743.31 179.79,-742.39 176.91,-736.01"/>
</g>
<!-- whileStatement -->
<g id="node34" class="node">
<title>whileStatement</title>
<polygon fill="#b2dfee" stroke="#b2dfee" points="316.5,-426 239.5,-426 239.5,-407 316.5,-407 316.5,-426"/>
<text text-anchor="middle" x="278" y="-414" font-family="Times New Roman,serif" font-size="10.00">whileStatement</text>
</g>
<!-- whileStatement&#45;&gt;loop -->
<g id="edge33" class="edge">
<title>whileStatement&#45;&gt;loop</title>
<path fill="none" stroke="black" d="M241.85,-426.03C221.85,-431.45 196.84,-438.23 176.67,-443.7"/>
<polygon fill="black" stroke="black" points="175.65,-440.35 166.91,-446.34 177.48,-447.1 175.65,-440.35"/>
</g>
</g>
</svg>
