<?xml version="1.0" encoding="UTF-8" standalone="no"?>
<!DOCTYPE svg PUBLIC "-//W3C//DTD SVG 1.1//EN"
 "http://www.w3.org/Graphics/SVG/1.1/DTD/svg11.dtd">
<!-- Generated by graphviz version 2.43.0 (0)
 -->
<!-- Title: JackdawWeaver_join_point_hierarchy_join_point_hierarchy Pages: 1 -->
<svg width="400pt" height="896pt"
 viewBox="0.00 0.00 400.00 896.00" xmlns="http://www.w3.org/2000/svg" xmlns:xlink="http://www.w3.org/1999/xlink">
<g id="graph0" class="graph" transform="scale(1 1) rotate(0) translate(4 892)">
<title>JackdawWeaver_join_point_hierarchy_join_point_hierarchy</title>
<polygon fill="white" stroke="transparent" points="-4,4 -4,-892 396,-892 396,4 -4,4"/>
<!-- assignmentExpression -->
<g id="node1" class="node">
<title>assignmentExpression</title>
<polygon fill="#b2dfee" stroke="#b2dfee" points="392,-851 259,-851 259,-832 392,-832 392,-851"/>
<text text-anchor="middle" x="325.5" y="-839" font-family="Times,serif" font-size="10.00">assignmentExpression</text>
</g>
<!-- expression -->
<g id="node2" class="node">
<title>expression</title>
<polygon fill="#b2dfee" stroke="#b2dfee" points="196.5,-759 124.5,-759 124.5,-740 196.5,-740 196.5,-759"/>
<text text-anchor="middle" x="160.5" y="-747" font-family="Times,serif" font-size="10.00">expression</text>
</g>
<!-- assignmentExpression&#45;&gt;expression -->
<g id="edge1" class="edge">
<title>assignmentExpression&#45;&gt;expression</title>
<path fill="none" stroke="black" d="M280.65,-831.95C273.24,-829.64 265.77,-826.84 259,-823.5 228.13,-808.25 197.28,-782.66 178.79,-765.93"/>
<polygon fill="black" stroke="black" points="181.16,-763.35 171.43,-759.15 176.41,-768.5 181.16,-763.35"/>
</g>
<!-- joinpoint -->
<g id="node7" class="node">
<title>joinpoint</title>
<polygon fill="#b2dfee" stroke="#b2dfee" points="62,-407 0,-407 0,-388 62,-388 62,-407"/>
<text text-anchor="middle" x="31" y="-395" font-family="Times,serif" font-size="10.00">joinpoint</text>
</g>
<!-- expression&#45;&gt;joinpoint -->
<g id="edge13" class="edge">
<title>expression&#45;&gt;joinpoint</title>
<path fill="none" stroke="black" d="M124.3,-746.02C114.58,-743.41 104.83,-738.97 98,-731.5 55.21,-684.69 37.78,-481.63 33.26,-417.19"/>
<polygon fill="black" stroke="black" points="36.75,-416.89 32.59,-407.15 29.77,-417.36 36.75,-416.89"/>
</g>
<!-- binaryExpression -->
<g id="node3" class="node">
<title>binaryExpression</title>
<polygon fill="#b2dfee" stroke="#b2dfee" points="379,-814 272,-814 272,-795 379,-795 379,-814"/>
<text text-anchor="middle" x="325.5" y="-802" font-family="Times,serif" font-size="10.00">binaryExpression</text>
</g>
<!-- binaryExpression&#45;&gt;expression -->
<g id="edge2" class="edge">
<title>binaryExpression&#45;&gt;expression</title>
<path fill="none" stroke="black" d="M287.25,-794.92C277.97,-792.35 268.08,-789.46 259,-786.5 237.16,-779.37 213.02,-770.22 194.22,-762.8"/>
<polygon fill="black" stroke="black" points="195.51,-759.55 184.92,-759.1 192.92,-766.05 195.51,-759.55"/>
</g>
<!-- blockStatement -->
<g id="node4" class="node">
<title>blockStatement</title>
<polygon fill="#b2dfee" stroke="#b2dfee" points="373.5,-888 277.5,-888 277.5,-869 373.5,-869 373.5,-888"/>
<text text-anchor="middle" x="325.5" y="-876" font-family="Times,serif" font-size="10.00">blockStatement</text>
</g>
<!-- statement -->
<g id="node5" class="node">
<title>statement</title>
<polygon fill="#b2dfee" stroke="#b2dfee" points="194.5,-842 126.5,-842 126.5,-823 194.5,-823 194.5,-842"/>
<text text-anchor="middle" x="160.5" y="-830" font-family="Times,serif" font-size="10.00">statement</text>
</g>
<!-- blockStatement&#45;&gt;statement -->
<g id="edge3" class="edge">
<title>blockStatement&#45;&gt;statement</title>
<path fill="none" stroke="black" d="M289.47,-868.95C279.61,-866.24 268.88,-863.28 259,-860.5 241,-855.44 221.16,-849.76 204.1,-844.85"/>
<polygon fill="black" stroke="black" points="205,-841.46 194.42,-842.06 203.06,-848.19 205,-841.46"/>
</g>
<!-- statement&#45;&gt;joinpoint -->
<g id="edge27" class="edge">
<title>statement&#45;&gt;joinpoint</title>
<path fill="none" stroke="black" d="M146.6,-822.99C132.29,-811.68 109.67,-791.43 98,-768.5 35.68,-646.04 31.19,-474.8 31.59,-417.25"/>
<polygon fill="black" stroke="black" points="35.09,-417.07 31.73,-407.02 28.09,-416.98 35.09,-417.07"/>
</g>
<!-- breakStatement -->
<g id="node6" class="node">
<title>breakStatement</title>
<polygon fill="#b2dfee" stroke="#b2dfee" points="209.5,-722 111.5,-722 111.5,-703 209.5,-703 209.5,-722"/>
<text text-anchor="middle" x="160.5" y="-710" font-family="Times,serif" font-size="10.00">breakStatement</text>
</g>
<!-- breakStatement&#45;&gt;joinpoint -->
<g id="edge4" class="edge">
<title>breakStatement&#45;&gt;joinpoint</title>
<path fill="none" stroke="black" d="M111.2,-704.03C106.28,-701.6 101.73,-698.48 98,-694.5 59.77,-653.65 39.61,-477.02 33.8,-417.31"/>
<polygon fill="black" stroke="black" points="37.28,-416.92 32.85,-407.29 30.31,-417.58 37.28,-416.92"/>
</g>
<!-- callExpression -->
<g id="node8" class="node">
<title>callExpression</title>
<polygon fill="#b2dfee" stroke="#b2dfee" points="371,-777 280,-777 280,-758 371,-758 371,-777"/>
<text text-anchor="middle" x="325.5" y="-765" font-family="Times,serif" font-size="10.00">callExpression</text>
</g>
<!-- callExpression&#45;&gt;expression -->
<g id="edge5" class="edge">
<title>callExpression&#45;&gt;expression</title>
<path fill="none" stroke="black" d="M279.96,-762.58C257.24,-760.07 229.65,-757.03 206.81,-754.5"/>
<polygon fill="black" stroke="black" points="207.02,-751.01 196.69,-753.39 206.25,-757.96 207.02,-751.01"/>
</g>
<!-- catchClause -->
<g id="node9" class="node">
<title>catchClause</title>
<polygon fill="#b2dfee" stroke="#b2dfee" points="199.5,-685 121.5,-685 121.5,-666 199.5,-666 199.5,-685"/>
<text text-anchor="middle" x="160.5" y="-673" font-family="Times,serif" font-size="10.00">catchClause</text>
</g>
<!-- catchClause&#45;&gt;joinpoint -->
<g id="edge6" class="edge">
<title>catchClause&#45;&gt;joinpoint</title>
<path fill="none" stroke="black" d="M121.34,-670.86C112.71,-668.17 104.26,-663.99 98,-657.5 64.27,-622.53 41.68,-471.84 34.48,-417.3"/>
<polygon fill="black" stroke="black" points="37.92,-416.67 33.17,-407.2 30.98,-417.56 37.92,-416.67"/>
</g>
<!-- classBody -->
<g id="node10" class="node">
<title>classBody</title>
<polygon fill="#b2dfee" stroke="#b2dfee" points="194.5,-648 126.5,-648 126.5,-629 194.5,-629 194.5,-648"/>
<text text-anchor="middle" x="160.5" y="-636" font-family="Times,serif" font-size="10.00">classBody</text>
</g>
<!-- classBody&#45;&gt;joinpoint -->
<g id="edge7" class="edge">
<title>classBody&#45;&gt;joinpoint</title>
<path fill="none" stroke="black" d="M126.32,-635.03C116.1,-632.46 105.56,-628.04 98,-620.5 41.04,-563.72 32.76,-460.28 31.89,-417.18"/>
<polygon fill="black" stroke="black" points="35.39,-417.11 31.81,-407.14 28.39,-417.17 35.39,-417.11"/>
</g>
<!-- classDeclaration -->
<g id="node11" class="node">
<title>classDeclaration</title>
<polygon fill="#b2dfee" stroke="#b2dfee" points="210.5,-611 110.5,-611 110.5,-592 210.5,-592 210.5,-611"/>
<text text-anchor="middle" x="160.5" y="-599" font-family="Times,serif" font-size="10.00">classDeclaration</text>
</g>
<!-- classDeclaration&#45;&gt;joinpoint -->
<g id="edge8" class="edge">
<title>classDeclaration&#45;&gt;joinpoint</title>
<path fill="none" stroke="black" d="M110.45,-591.98C105.9,-589.73 101.64,-586.94 98,-583.5 49.93,-538.06 36.83,-455.4 33.29,-417.48"/>
<polygon fill="black" stroke="black" points="36.76,-416.93 32.47,-407.24 29.78,-417.48 36.76,-416.93"/>
</g>
<!-- continueStatement -->
<g id="node12" class="node">
<title>continueStatement</title>
<polygon fill="#b2dfee" stroke="#b2dfee" points="217,-574 104,-574 104,-555 217,-555 217,-574"/>
<text text-anchor="middle" x="160.5" y="-562" font-family="Times,serif" font-size="10.00">continueStatement</text>
</g>
<!-- continueStatement&#45;&gt;joinpoint -->
<g id="edge9" class="edge">
<title>continueStatement&#45;&gt;joinpoint</title>
<path fill="none" stroke="black" d="M111.32,-554.99C106.5,-552.73 101.93,-549.94 98,-546.5 58.4,-511.82 41.5,-448.84 35.22,-417.02"/>
<polygon fill="black" stroke="black" points="38.66,-416.37 33.42,-407.16 31.77,-417.63 38.66,-416.37"/>
</g>
<!-- declaration -->
<g id="node13" class="node">
<title>declaration</title>
<polygon fill="#b2dfee" stroke="#b2dfee" points="197.5,-537 123.5,-537 123.5,-518 197.5,-518 197.5,-537"/>
<text text-anchor="middle" x="160.5" y="-525" font-family="Times,serif" font-size="10.00">declaration</text>
</g>
<!-- declaration&#45;&gt;joinpoint -->
<g id="edge10" class="edge">
<title>declaration&#45;&gt;joinpoint</title>
<path fill="none" stroke="black" d="M123.18,-521.72C114.31,-519.06 105.29,-515.17 98,-509.5 66.83,-485.24 47.44,-441.81 38.28,-416.76"/>
<polygon fill="black" stroke="black" points="41.57,-415.55 34.98,-407.25 34.96,-417.85 41.57,-415.55"/>
</g>
<!-- declarator -->
<g id="node14" class="node">
<title>declarator</title>
<polygon fill="#b2dfee" stroke="#b2dfee" points="194.5,-500 126.5,-500 126.5,-481 194.5,-481 194.5,-500"/>
<text text-anchor="middle" x="160.5" y="-488" font-family="Times,serif" font-size="10.00">declarator</text>
</g>
<!-- declarator&#45;&gt;joinpoint -->
<g id="edge11" class="edge">
<title>declarator&#45;&gt;joinpoint</title>
<path fill="none" stroke="black" d="M126.43,-484.48C116.78,-481.78 106.54,-477.94 98,-472.5 74.91,-457.8 55.21,-432.73 43.5,-415.66"/>
<polygon fill="black" stroke="black" points="46.28,-413.52 37.84,-407.11 40.44,-417.38 46.28,-413.52"/>
</g>
<!-- doWhileStatement -->
<g id="node15" class="node">
<title>doWhileStatement</title>
<polygon fill="#b2dfee" stroke="#b2dfee" points="381,-500 270,-500 270,-481 381,-481 381,-500"/>
<text text-anchor="middle" x="325.5" y="-488" font-family="Times,serif" font-size="10.00">doWhileStatement</text>
</g>
<!-- loop -->
<g id="node16" class="node">
<title>loop</title>
<polygon fill="#b2dfee" stroke="#b2dfee" points="187.5,-463 133.5,-463 133.5,-444 187.5,-444 187.5,-463"/>
<text text-anchor="middle" x="160.5" y="-451" font-family="Times,serif" font-size="10.00">loop</text>
</g>
<!-- doWhileStatement&#45;&gt;loop -->
<g id="edge12" class="edge">
<title>doWhileStatement&#45;&gt;loop</title>
<path fill="none" stroke="black" d="M282.52,-480.97C256.16,-474.99 222.52,-467.35 197.4,-461.65"/>
<polygon fill="black" stroke="black" points="198.07,-458.21 187.54,-459.41 196.52,-465.04 198.07,-458.21"/>
</g>
<!-- loop&#45;&gt;joinpoint -->
<g id="edge22" class="edge">
<title>loop&#45;&gt;joinpoint</title>
<path fill="none" stroke="black" d="M133.29,-447.3C122.19,-444.3 109.25,-440.31 98,-435.5 83.17,-429.17 67.5,-420.25 55.15,-412.64"/>
<polygon fill="black" stroke="black" points="56.75,-409.51 46.42,-407.15 53.02,-415.44 56.75,-409.51"/>
</g>
<!-- expressionStatement -->
<g id="node17" class="node">
<title>expressionStatement</title>
<polygon fill="#b2dfee" stroke="#b2dfee" points="223,-426 98,-426 98,-407 223,-407 223,-426"/>
<text text-anchor="middle" x="160.5" y="-414" font-family="Times,serif" font-size="10.00">expressionStatement</text>
</g>
<!-- expressionStatement&#45;&gt;joinpoint -->
<g id="edge14" class="edge">
<title>expressionStatement&#45;&gt;joinpoint</title>
<path fill="none" stroke="black" d="M97.99,-407.33C89.21,-406.03 80.38,-404.71 72.16,-403.48"/>
<polygon fill="black" stroke="black" points="72.53,-400 62.12,-401.99 71.49,-406.92 72.53,-400"/>
</g>
<!-- file -->
<g id="node18" class="node">
<title>file</title>
<polygon fill="#b2dfee" stroke="#b2dfee" points="187.5,-389 133.5,-389 133.5,-370 187.5,-370 187.5,-389"/>
<text text-anchor="middle" x="160.5" y="-377" font-family="Times,serif" font-size="10.00">file</text>
</g>
<!-- file&#45;&gt;joinpoint -->
<g id="edge15" class="edge">
<title>file&#45;&gt;joinpoint</title>
<path fill="none" stroke="black" d="M133.39,-383.19C115.77,-385.67 92.18,-389 72.18,-391.83"/>
<polygon fill="black" stroke="black" points="71.51,-388.39 62.1,-393.25 72.49,-395.32 71.51,-388.39"/>
</g>
<!-- forStatement -->
<g id="node19" class="node">
<title>forStatement</title>
<polygon fill="#b2dfee" stroke="#b2dfee" points="367,-463 284,-463 284,-444 367,-444 367,-463"/>
<text text-anchor="middle" x="325.5" y="-451" font-family="Times,serif" font-size="10.00">forStatement</text>
</g>
<!-- forStatement&#45;&gt;loop -->
<g id="edge16" class="edge">
<title>forStatement&#45;&gt;loop</title>
<path fill="none" stroke="black" d="M283.79,-453.5C257.55,-453.5 223.71,-453.5 198.29,-453.5"/>
<polygon fill="black" stroke="black" points="197.95,-450 187.95,-453.5 197.95,-457 197.95,-450"/>
</g>
<!-- functionDeclaration -->
<g id="node20" class="node">
<title>functionDeclaration</title>
<polygon fill="#b2dfee" stroke="#b2dfee" points="219,-352 102,-352 102,-333 219,-333 219,-352"/>
<text text-anchor="middle" x="160.5" y="-340" font-family="Times,serif" font-size="10.00">functionDeclaration</text>
</g>
<!-- functionDeclaration&#45;&gt;joinpoint -->
<g id="edge17" class="edge">
<title>functionDeclaration&#45;&gt;joinpoint</title>
<path fill="none" stroke="black" d="M124.27,-352.06C115.56,-354.78 106.34,-357.98 98,-361.5 83.72,-367.53 68.49,-375.71 56.26,-382.75"/>
<polygon fill="black" stroke="black" points="54.41,-379.77 47.56,-387.85 57.96,-385.81 54.41,-379.77"/>
</g>
<!-- functionExpression -->
<g id="node21" class="node">
<title>functionExpression</title>
<polygon fill="#b2dfee" stroke="#b2dfee" points="383.5,-740 267.5,-740 267.5,-721 383.5,-721 383.5,-740"/>
<text text-anchor="middle" x="325.5" y="-728" font-family="Times,serif" font-size="10.00">functionExpression</text>
</g>
<!-- functionExpression&#45;&gt;expression -->
<g id="edge18" class="edge">
<title>functionExpression&#45;&gt;expression</title>
<path fill="none" stroke="black" d="M267.49,-737.15C247.66,-739.46 225.7,-742.02 206.93,-744.2"/>
<polygon fill="black" stroke="black" points="206.4,-740.74 196.87,-745.38 207.21,-747.7 206.4,-740.74"/>
</g>
<!-- identifier -->
<g id="node22" class="node">
<title>identifier</title>
<polygon fill="#b2dfee" stroke="#b2dfee" points="192,-315 129,-315 129,-296 192,-296 192,-315"/>
<text text-anchor="middle" x="160.5" y="-303" font-family="Times,serif" font-size="10.00">identifier</text>
</g>
<!-- identifier&#45;&gt;joinpoint -->
<g id="edge19" class="edge">
<title>identifier&#45;&gt;joinpoint</title>
<path fill="none" stroke="black" d="M128.69,-311.55C118.41,-314.45 107.23,-318.61 98,-324.5 75.39,-338.92 55.7,-363.09 43.84,-379.64"/>
<polygon fill="black" stroke="black" points="40.91,-377.73 38.1,-387.94 46.67,-381.72 40.91,-377.73"/>
</g>
<!-- ifStatement -->
<g id="node23" class="node">
<title>ifStatement</title>
<polygon fill="#b2dfee" stroke="#b2dfee" points="198.5,-278 122.5,-278 122.5,-259 198.5,-259 198.5,-278"/>
<text text-anchor="middle" x="160.5" y="-266" font-family="Times,serif" font-size="10.00">ifStatement</text>
</g>
<!-- ifStatement&#45;&gt;joinpoint -->
<g id="edge20" class="edge">
<title>ifStatement&#45;&gt;joinpoint</title>
<path fill="none" stroke="black" d="M122.24,-275.27C113.68,-278.06 105.03,-281.98 98,-287.5 67.47,-311.44 47.93,-353.74 38.56,-378.32"/>
<polygon fill="black" stroke="black" points="35.18,-377.36 35.06,-387.96 41.76,-379.75 35.18,-377.36"/>
</g>
<!-- literal -->
<g id="node24" class="node">
<title>literal</title>
<polygon fill="#b2dfee" stroke="#b2dfee" points="187.5,-241 133.5,-241 133.5,-222 187.5,-222 187.5,-241"/>
<text text-anchor="middle" x="160.5" y="-229" font-family="Times,serif" font-size="10.00">literal</text>
</g>
<!-- literal&#45;&gt;joinpoint -->
<g id="edge21" class="edge">
<title>literal&#45;&gt;joinpoint</title>
<path fill="none" stroke="black" d="M133.46,-234.56C121.48,-237.12 107.79,-241.84 98,-250.5 59.37,-284.67 42.15,-345.86 35.54,-377.43"/>
<polygon fill="black" stroke="black" points="32.03,-377.14 33.56,-387.62 38.9,-378.47 32.03,-377.14"/>
</g>
<!-- memberExpression -->
<g id="node25" class="node">
<title>memberExpression</title>
<polygon fill="#b2dfee" stroke="#b2dfee" points="383.5,-703 267.5,-703 267.5,-684 383.5,-684 383.5,-703"/>
<text text-anchor="middle" x="325.5" y="-691" font-family="Times,serif" font-size="10.00">memberExpression</text>
</g>
<!-- memberExpression&#45;&gt;expression -->
<g id="edge23" class="edge">
<title>memberExpression&#45;&gt;expression</title>
<path fill="none" stroke="black" d="M286.64,-703.06C277.47,-705.77 267.78,-708.95 259,-712.5 242.23,-719.28 239.77,-724.7 223,-731.5 217.78,-733.62 212.22,-735.6 206.66,-737.42"/>
<polygon fill="black" stroke="black" points="205.23,-734.2 196.72,-740.51 207.31,-740.88 205.23,-734.2"/>
</g>
<!-- methodDefinition -->
<g id="node26" class="node">
<title>methodDefinition</title>
<polygon fill="#b2dfee" stroke="#b2dfee" points="213.5,-204 107.5,-204 107.5,-185 213.5,-185 213.5,-204"/>
<text text-anchor="middle" x="160.5" y="-192" font-family="Times,serif" font-size="10.00">methodDefinition</text>
</g>
<!-- methodDefinition&#45;&gt;joinpoint -->
<g id="edge24" class="edge">
<title>methodDefinition&#45;&gt;joinpoint</title>
<path fill="none" stroke="black" d="M111.97,-204.11C106.85,-206.56 102.04,-209.64 98,-213.5 50.65,-258.77 37.18,-340.39 33.42,-377.8"/>
<polygon fill="black" stroke="black" points="29.92,-377.63 32.54,-387.9 36.9,-378.24 29.92,-377.63"/>
</g>
<!-- project -->
<g id="node27" class="node">
<title>project</title>
<polygon fill="#b2dfee" stroke="#b2dfee" points="187.5,-167 133.5,-167 133.5,-148 187.5,-148 187.5,-167"/>
<text text-anchor="middle" x="160.5" y="-155" font-family="Times,serif" font-size="10.00">project</text>
</g>
<!-- project&#45;&gt;joinpoint -->
<g id="edge25" class="edge">
<title>project&#45;&gt;joinpoint</title>
<path fill="none" stroke="black" d="M133.24,-159.94C121.07,-162.36 107.28,-167.13 98,-176.5 41.98,-233.05 33.17,-335.02 32.02,-377.78"/>
<polygon fill="black" stroke="black" points="28.52,-377.92 31.87,-387.97 35.52,-378.03 28.52,-377.92"/>
</g>
<!-- scope -->
<g id="node28" class="node">
<title>scope</title>
<polygon fill="#b2dfee" stroke="#b2dfee" points="187.5,-130 133.5,-130 133.5,-111 187.5,-111 187.5,-130"/>
<text text-anchor="middle" x="160.5" y="-118" font-family="Times,serif" font-size="10.00">scope</text>
</g>
<!-- scope&#45;&gt;joinpoint -->
<g id="edge26" class="edge">
<title>scope&#45;&gt;joinpoint</title>
<path fill="none" stroke="black" d="M133.39,-122.72C121.1,-125.09 107.17,-129.87 98,-139.5 64.74,-174.44 41.85,-323.82 34.52,-377.88"/>
<polygon fill="black" stroke="black" points="31.04,-377.52 33.2,-387.89 37.98,-378.44 31.04,-377.52"/>
</g>
<!-- switchCase -->
<g id="node29" class="node">
<title>switchCase</title>
<polygon fill="#b2dfee" stroke="#b2dfee" points="197.5,-93 123.5,-93 123.5,-74 197.5,-74 197.5,-93"/>
<text text-anchor="middle" x="160.5" y="-81" font-family="Times,serif" font-size="10.00">switchCase</text>
</g>
<!-- switchCase&#45;&gt;joinpoint -->
<g id="edge28" class="edge">
<title>switchCase&#45;&gt;joinpoint</title>
<path fill="none" stroke="black" d="M123.45,-87.35C114.05,-90 104.69,-94.35 98,-101.5 59.87,-142.2 39.65,-318.24 33.81,-377.75"/>
<polygon fill="black" stroke="black" points="30.32,-377.45 32.86,-387.74 37.29,-378.12 30.32,-377.45"/>
</g>
<!-- switchStatement -->
<g id="node30" class="node">
<title>switchStatement</title>
<polygon fill="#b2dfee" stroke="#b2dfee" points="211,-56 110,-56 110,-37 211,-37 211,-56"/>
<text text-anchor="middle" x="160.5" y="-44" font-family="Times,serif" font-size="10.00">switchStatement</text>
</g>
<!-- switchStatement&#45;&gt;joinpoint -->
<g id="edge29" class="edge">
<title>switchStatement&#45;&gt;joinpoint</title>
<path fill="none" stroke="black" d="M109.92,-55.5C105.47,-57.85 101.38,-60.81 98,-64.5 55.32,-111.17 37.81,-313.62 33.27,-377.86"/>
<polygon fill="black" stroke="black" points="29.78,-377.66 32.59,-387.88 36.76,-378.14 29.78,-377.66"/>
</g>
<!-- thisExpression -->
<g id="node31" class="node">
<title>thisExpression</title>
<polygon fill="#b2dfee" stroke="#b2dfee" points="371.5,-666 279.5,-666 279.5,-647 371.5,-647 371.5,-666"/>
<text text-anchor="middle" x="325.5" y="-654" font-family="Times,serif" font-size="10.00">thisExpression</text>
</g>
<!-- thisExpression&#45;&gt;expression -->
<g id="edge30" class="edge">
<title>thisExpression&#45;&gt;expression</title>
<path fill="none" stroke="black" d="M279.48,-664.89C272.2,-667.52 265.07,-670.97 259,-675.5 235.28,-693.19 246.7,-713.78 223,-731.5 217.97,-735.26 212.17,-738.24 206.18,-740.59"/>
<polygon fill="black" stroke="black" points="205.05,-737.28 196.71,-743.81 207.3,-743.91 205.05,-737.28"/>
</g>
<!-- tryStatement -->
<g id="node32" class="node">
<title>tryStatement</title>
<polygon fill="#b2dfee" stroke="#b2dfee" points="202,-19 119,-19 119,0 202,0 202,-19"/>
<text text-anchor="middle" x="160.5" y="-7" font-family="Times,serif" font-size="10.00">tryStatement</text>
</g>
<!-- tryStatement&#45;&gt;joinpoint -->
<g id="edge31" class="edge">
<title>tryStatement&#45;&gt;joinpoint</title>
<path fill="none" stroke="black" d="M118.78,-14.57C110.96,-17.28 103.5,-21.37 98,-27.5 50.83,-80.07 36.24,-308.3 32.86,-377.52"/>
<polygon fill="black" stroke="black" points="29.35,-377.73 32.38,-387.88 36.34,-378.05 29.35,-377.73"/>
</g>
<!-- updateExpression -->
<g id="node33" class="node">
<title>updateExpression</title>
<polygon fill="#b2dfee" stroke="#b2dfee" points="380.5,-629 270.5,-629 270.5,-610 380.5,-610 380.5,-629"/>
<text text-anchor="middle" x="325.5" y="-617" font-family="Times,serif" font-size="10.00">updateExpression</text>
</g>
<!-- updateExpression&#45;&gt;expression -->
<g id="edge32" class="edge">
<title>updateExpression&#45;&gt;expression</title>
<path fill="none" stroke="black" d="M273.34,-629.14C268.11,-631.59 263.19,-634.66 259,-638.5 226.33,-668.45 255.64,-701.51 223,-731.5 218.22,-735.9 212.41,-739.22 206.31,-741.74"/>
<polygon fill="black" stroke="black" points="204.89,-738.52 196.56,-745.07 207.16,-745.15 204.89,-738.52"/>
</g>
<!-- whileStatement -->
<g id="node34" class="node">
<title>whileStatement</title>
<polygon fill="#b2dfee" stroke="#b2dfee" points="373.5,-426 277.5,-426 277.5,-407 373.5,-407 373.5,-426"/>
<text text-anchor="middle" x="325.5" y="-414" font-family="Times,serif" font-size="10.00">whileStatement</text>
</g>
<!-- whileStatement&#45;&gt;loop -->
<g id="edge33" class="edge">
<title>whileStatement&#45;&gt;loop</title>
<path fill="none" stroke="black" d="M282.52,-426.03C256.16,-432.01 222.52,-439.65 197.4,-445.35"/>
<polygon fill="black" stroke="black" points="196.52,-441.96 187.54,-447.59 198.07,-448.79 196.52,-441.96"/>
</g>
</g>
</svg>
